<svg width="24" height="24" viewBox="0 0 24 24" fill="none" xmlns="http://www.w3.org/2000/svg">
<path d="M23 12C23 13.3864 22.7379 14.7603 22.2275 16.0494L20.7957 15.4825C21.2346 14.3739 21.46 13.1923 21.46 12L23 12Z" fill="white"/>
<path d="M21.5263 17.5C20.8331 18.7007 19.9191 19.7595 18.8326 20.6206L17.8761 19.4137C18.8105 18.6731 19.5964 17.7626 20.1926 16.73L21.5263 17.5Z" fill="white"/>
<path d="M17.5 21.5263C16.2993 22.2195 14.9784 22.6795 13.6069 22.882L13.3819 21.3585C14.5615 21.1843 15.6974 20.7888 16.73 20.1926L17.5 21.5263Z" fill="white"/>
<path d="M12 23C10.6136 23 9.23968 22.7379 7.95063 22.2275L8.51754 20.7957C9.62612 21.2346 10.8077 21.46 12 21.46L12 23Z" fill="white"/>
<path d="M6.5 21.5263C5.29933 20.8331 4.24054 19.9191 3.37937 18.8326L4.58626 17.8761C5.32686 18.8105 6.23743 19.5964 7.27 20.1926L6.5 21.5263Z" fill="white"/>
<path d="M2.47372 17.5C1.78052 16.2993 1.32054 14.9784 1.118 13.6069L2.64148 13.3819C2.81566 14.5615 3.21124 15.6974 3.8074 16.73L2.47372 17.5Z" fill="white"/>
<path d="M1 12C1 10.6136 1.26209 9.23968 1.77246 7.95063L3.20432 8.51755C2.7654 9.62613 2.54 10.8077 2.54 12L1 12Z" fill="white"/>
<path d="M2.47372 6.5C3.16693 5.29934 4.08086 4.24054 5.16738 3.37938L6.12394 4.58626C5.18954 5.32687 4.40356 6.23743 3.8074 7.27L2.47372 6.5Z" fill="white"/>
<path d="M6.5 2.47373C7.70067 1.78052 9.02155 1.32054 10.3931 1.11801L10.6181 2.64149C9.43853 2.81567 8.30257 3.21125 7.27 3.8074L6.5 2.47373Z" fill="white"/>
<path d="M12 1C13.3864 1 14.7603 1.26209 16.0494 1.77246L15.4825 3.20432C14.3739 2.7654 13.1923 2.54 12 2.54L12 1Z" fill="white"/>
<path d="M17.5 2.47373C18.7007 3.16693 19.7595 4.08086 20.6206 5.16738L19.4137 6.12395C18.6731 5.18954 17.7626 4.40356 16.73 3.8074L17.5 2.47373Z" fill="white"/>
<path d="M21.5263 6.5C22.2195 7.70067 22.6795 9.02155 22.882 10.3931L21.3585 10.6181C21.1843 9.43854 20.7888 8.30257 20.1926 7.27L21.5263 6.5Z" fill="white"/>
<g opacity="0.6">
<path d="M20.5001 9.7224C20.7872 10.7937 20.8692 11.9097 20.7417 13.0115L19.343 12.8496C19.4501 11.9241 19.3813 10.9867 19.1401 10.0868L20.5001 9.7224Z" fill="white"/>
<path d="M20.5001 14.2776C20.2131 15.3489 19.7261 16.3564 19.0648 17.2468L17.9344 16.4073C18.4899 15.6593 18.899 14.8131 19.1401 13.9132L20.5001 14.2776Z" fill="white"/>
<path d="M18.2225 18.2225C17.4383 19.0068 16.5128 19.6358 15.4949 20.0762L14.9357 18.784C15.7908 18.414 16.5681 17.8857 17.2269 17.2269L18.2225 18.2225Z" fill="white"/>
<path d="M14.2776 20.5001C13.2063 20.7872 12.0903 20.8692 10.9885 20.7417L11.1504 19.343C12.0759 19.4501 13.0133 19.3813 13.9132 19.1401L14.2776 20.5001Z" fill="white"/>
<path d="M9.72239 20.5001C8.65106 20.2131 7.64364 19.7261 6.75322 19.0648L7.5927 17.9344C8.34066 18.4899 9.18689 18.899 10.0868 19.1401L9.72239 20.5001Z" fill="white"/>
<path d="M5.77746 18.2225C4.99319 17.4383 4.36425 16.5128 3.92376 15.4949L5.21596 14.9357C5.58597 15.7908 6.11428 16.5681 6.77306 17.2269L5.77746 18.2225Z" fill="white"/>
<path d="M3.49985 14.2776C3.21279 13.2063 3.13084 12.0904 3.25832 10.9886L4.65699 11.1504C4.54991 12.0759 4.61875 13.0133 4.85988 13.9132L3.49985 14.2776Z" fill="white"/>
<path d="M3.49985 9.72242C3.78692 8.65109 4.27392 7.64368 4.93521 6.75325L6.06558 7.59273C5.51009 8.34069 5.10101 9.18692 4.85988 10.0868L3.49985 9.72242Z" fill="white"/>
<path d="M5.77746 5.77749C6.56173 4.99322 7.48719 4.36428 8.5051 3.92379L9.06428 5.21599C8.20924 5.586 7.43186 6.11431 6.77307 6.7731L5.77746 5.77749Z" fill="white"/>
<path d="M9.72239 3.49988C10.7937 3.21282 11.9097 3.13087 13.0114 3.25835L12.8496 4.65702C11.9241 4.54993 10.9867 4.61877 10.0868 4.85991L9.72239 3.49988Z" fill="white"/>
<path d="M14.2776 3.49988C15.3489 3.78694 16.3564 4.27395 17.2468 4.93523L16.4073 6.0656C15.6593 5.51012 14.8131 5.10104 13.9132 4.85991L14.2776 3.49988Z" fill="white"/>
<path d="M18.2225 5.77749C19.0068 6.56176 19.6358 7.48722 20.0762 8.50512L18.784 9.06431C18.414 8.20927 17.8857 7.43188 17.2269 6.77309L18.2225 5.77749Z" fill="white"/>
</g>
<g opacity="0.2">
<path d="M17.7158 8.7C18.1317 9.42039 18.4077 10.2129 18.5292 11.0358L17.2233 11.2287C17.1261 10.5703 16.9053 9.93631 16.5726 9.36L17.7158 8.7Z" fill="white"/>
<path d="M18.6 12C18.6 12.8318 18.4427 13.6562 18.1365 14.4296L16.9092 13.9437C17.1542 13.3249 17.28 12.6655 17.28 12L18.6 12Z" fill="white"/>
<path d="M17.7158 15.3C17.2998 16.0204 16.7515 16.6557 16.0996 17.1724L15.2796 16.1379C15.8012 15.7245 16.2399 15.2163 16.5726 14.64L17.7158 15.3Z" fill="white"/>
<path d="M15.3 17.7158C14.5796 18.1317 13.7871 18.4077 12.9641 18.5292L12.7713 17.2234C13.4296 17.1261 14.0637 16.9053 14.64 16.5726L15.3 17.7158Z" fill="white"/>
<path d="M12 18.6C11.1681 18.6 10.3438 18.4427 9.57037 18.1365L10.0563 16.9092C10.675 17.1542 11.3345 17.28 12 17.28L12 18.6Z" fill="white"/>
<path d="M8.69999 17.7158C7.97959 17.2998 7.34431 16.7515 6.82761 16.0996L7.86209 15.2797C8.27545 15.8012 8.78367 16.2399 9.35999 16.5726L8.69999 17.7158Z" fill="white"/>
<path d="M6.28423 15.3C5.86831 14.5796 5.59232 13.7871 5.4708 12.9642L6.77664 12.7713C6.87386 13.4297 7.09465 14.0637 7.42739 14.64L6.28423 15.3Z" fill="white"/>
<path d="M5.4 12C5.4 11.1682 5.55725 10.3438 5.86347 9.57038L7.09078 10.0563C6.8458 10.6751 6.72 11.3345 6.72 12L5.4 12Z" fill="white"/>
<path d="M6.28423 8.70001C6.70015 7.97961 7.24851 7.34433 7.90042 6.82763L8.72034 7.8621C8.19881 8.27546 7.76012 8.78369 7.42738 9.36001L6.28423 8.70001Z" fill="white"/>
<path d="M8.7 6.28424C9.4204 5.86832 10.2129 5.59233 11.0358 5.47081L11.2287 6.77665C10.5703 6.87386 9.93632 7.09465 9.36 7.42739L8.7 6.28424Z" fill="white"/>
<path d="M12 5.40001C12.8318 5.40001 13.6562 5.55726 14.4296 5.86348L13.9437 7.09079C13.3249 6.84581 12.6655 6.72001 12 6.72001L12 5.40001Z" fill="white"/>
<path d="M15.3 6.28424C16.0204 6.70016 16.6557 7.24852 17.1724 7.90043L16.1379 8.72034C15.7245 8.19882 15.2163 7.76013 14.64 7.42739L15.3 6.28424Z" fill="white"/>
</g>
</svg>
